<?xml version="1.0" encoding="UTF-8"?>
<svg xmlns="http://www.w3.org/2000/svg" xmlns:xlink="http://www.w3.org/1999/xlink" viewBox="0 0 256 256" width="256px" height="256px">
<g id="surface287739677">
<path style=" stroke:none;fill-rule:nonzero;fill:rgb(0%,0%,0%);fill-opacity:1;" d="M 132 20.132812 C 128.339844 20.132812 124.679688 21.484375 122.015625 24.179688 L 37.59375 109.476562 C 33.984375 113.125 32 117.96875 32 123.125 L 32 213.789062 C 32 221.625 38.324219 228 46.101562 228 L 217.890625 228 C 225.671875 228 232 221.625 232 213.789062 L 232 123.125 C 232 117.96875 230.015625 113.121094 226.40625 109.476562 L 141.984375 24.179688 C 139.320312 21.484375 135.660156 20.132812 132 20.132812 Z M 132 28 C 133.621094 28 135.144531 28.640625 136.296875 29.804688 L 154.484375 48.179688 L 121.5 81.164062 C 119.9375 82.726562 119.9375 85.257812 121.5 86.820312 C 122.28125 87.601562 123.304688 87.992188 124.328125 87.992188 C 125.351562 87.992188 126.375 87.601562 127.15625 86.820312 L 132.671875 81.304688 L 184 132.617188 L 184 180 L 80 180 L 80 133.976562 L 114.8125 99.15625 C 116.375 97.59375 116.375 95.070312 114.8125 93.507812 C 113.25 91.945312 110.71875 91.945312 109.15625 93.507812 L 40 162.664062 L 40 123.125 C 40 120.136719 41.191406 117.210938 43.28125 115.101562 L 127.703125 29.804688 C 128.855469 28.640625 130.378906 28 132 28 Z M 160.109375 53.867188 L 220.71875 115.109375 C 222.808594 117.21875 224 120.136719 224 123.125 L 224 213.789062 C 224 217.21875 221.261719 220 217.898438 220 L 192 220 L 192 130.960938 C 192 129.898438 191.582031 128.878906 190.828125 128.132812 L 138.320312 75.648438 Z M 72 141.976562 L 72 220 L 46.101562 220 C 42.738281 220 40 217.21875 40 213.789062 L 40 173.976562 Z M 92 156 C 89.789062 156 88 157.792969 88 160 L 88 168 C 88 170.207031 89.789062 172 92 172 C 94.210938 172 96 170.207031 96 168 L 96 160 C 96 157.792969 94.210938 156 92 156 Z M 112 156 C 109.789062 156 108 157.792969 108 160 L 108 168 C 108 170.207031 109.789062 172 112 172 C 114.210938 172 116 170.207031 116 168 L 116 160 C 116 157.792969 114.210938 156 112 156 Z M 132 156 C 129.789062 156 128 157.792969 128 160 L 128 168 C 128 170.207031 129.789062 172 132 172 C 134.210938 172 136 170.207031 136 168 L 136 160 C 136 157.792969 134.210938 156 132 156 Z M 152 156 C 149.789062 156 148 157.792969 148 160 L 148 168 C 148 170.207031 149.789062 172 152 172 C 154.210938 172 156 170.207031 156 168 L 156 160 C 156 157.792969 154.210938 156 152 156 Z M 172 156 C 169.789062 156 168 157.792969 168 160 L 168 168 C 168 170.207031 169.789062 172 172 172 C 174.210938 172 176 170.207031 176 168 L 176 160 C 176 157.792969 174.210938 156 172 156 Z M 80 188 L 184 188 L 184 220 L 80 220 Z M 80 188 "/>
<path style=" stroke:none;fill-rule:nonzero;fill:rgb(80.000001%,80.000001%,80.000001%);fill-opacity:1;" d="M 93.402344 207.195312 L 95.785156 207.195312 C 95.566406 209.089844 94.867188 210.554688 93.6875 211.585938 C 92.503906 212.628906 90.933594 213.148438 88.96875 213.148438 C 86.84375 213.148438 85.140625 212.386719 83.863281 210.859375 C 82.582031 209.328125 81.941406 207.289062 81.941406 204.742188 L 81.941406 203.015625 C 81.941406 201.335938 82.238281 199.867188 82.835938 198.609375 C 83.429688 197.339844 84.277344 196.359375 85.378906 195.675781 C 86.472656 195 87.738281 194.664062 89.175781 194.664062 C 91.089844 194.664062 92.625 195.195312 93.773438 196.257812 C 94.925781 197.328125 95.59375 198.808594 95.785156 200.691406 L 93.402344 200.691406 C 93.195312 199.253906 92.746094 198.214844 92.0625 197.582031 C 91.378906 196.9375 90.417969 196.613281 89.175781 196.613281 C 87.65625 196.613281 86.472656 197.175781 85.617188 198.296875 C 84.753906 199.417969 84.324219 201.007812 84.324219 203.074219 L 84.324219 204.816406 C 84.324219 206.769531 84.730469 208.324219 85.542969 209.472656 C 86.359375 210.625 87.5 211.199219 88.96875 211.199219 C 90.289062 211.199219 91.300781 210.902344 92.003906 210.308594 C 92.707031 209.710938 93.175781 208.675781 93.402344 207.195312 Z M 109.714844 202.253906 L 109.714844 205.230469 C 109.714844 207.902344 109.257812 209.886719 108.347656 211.183594 C 107.433594 212.496094 106.003906 213.148438 104.058594 213.148438 C 102.132812 213.148438 100.710938 212.511719 99.789062 211.230469 C 98.863281 209.960938 98.390625 208.058594 98.359375 205.53125 L 98.359375 202.476562 C 98.359375 199.839844 98.816406 197.875 99.726562 196.585938 C 100.640625 195.304688 102.074219 194.664062 104.03125 194.664062 C 105.964844 194.664062 107.386719 195.285156 108.300781 196.523438 C 109.214844 197.765625 109.6875 199.675781 109.714844 202.253906 Z M 107.421875 205.84375 L 107.421875 202.105469 C 107.421875 200.160156 107.152344 198.746094 106.605469 197.863281 C 106.070312 196.980469 105.210938 196.539062 104.03125 196.539062 C 102.859375 196.539062 102.003906 196.980469 101.46875 197.863281 C 100.933594 198.746094 100.660156 200.101562 100.652344 201.925781 L 100.652344 205.589844 C 100.652344 207.523438 100.929688 208.957031 101.484375 209.890625 C 102.050781 210.8125 102.910156 211.273438 104.058594 211.273438 C 105.179688 211.273438 106.019531 210.835938 106.574219 209.964844 C 107.121094 209.089844 107.402344 207.71875 107.421875 205.84375 Z M 121.207031 194.902344 L 121.609375 194.902344 L 121.609375 196.835938 L 121.191406 196.835938 C 119.414062 196.867188 117.996094 197.394531 116.933594 198.414062 C 115.882812 199.4375 115.277344 200.875 115.117188 202.730469 C 116.0625 201.640625 117.351562 201.09375 118.988281 201.09375 C 120.554688 201.09375 121.804688 201.648438 122.738281 202.761719 C 123.671875 203.863281 124.136719 205.285156 124.136719 207.03125 C 124.136719 208.878906 123.636719 210.363281 122.632812 211.484375 C 121.621094 212.59375 120.269531 213.148438 118.570312 213.148438 C 116.84375 213.148438 115.449219 212.484375 114.390625 211.15625 C 113.316406 209.835938 112.78125 208.132812 112.78125 206.050781 L 112.78125 205.171875 C 112.78125 201.867188 113.484375 199.335938 114.894531 197.582031 C 116.304688 195.835938 118.40625 194.941406 121.207031 194.902344 Z M 118.601562 203 C 117.828125 203 117.109375 203.230469 116.441406 203.699219 C 115.789062 204.175781 115.332031 204.765625 115.074219 205.46875 L 115.074219 206.316406 C 115.074219 207.796875 115.40625 208.988281 116.070312 209.890625 C 116.746094 210.804688 117.578125 211.257812 118.570312 211.257812 C 119.601562 211.257812 120.410156 210.878906 120.996094 210.113281 C 121.582031 209.359375 121.875 208.367188 121.875 207.136719 C 121.875 205.90625 121.578125 204.910156 120.980469 204.144531 C 120.386719 203.382812 119.59375 203 118.601562 203 Z M 138.632812 211.035156 L 138.632812 212.898438 L 126.847656 212.898438 L 126.847656 211.257812 L 133.066406 204.339844 C 133.992188 203.285156 134.628906 202.433594 134.988281 201.777344 C 135.335938 201.125 135.507812 200.449219 135.507812 199.753906 C 135.507812 198.8125 135.226562 198.042969 134.660156 197.449219 C 134.085938 196.84375 133.324219 196.539062 132.382812 196.539062 C 131.242188 196.539062 130.359375 196.863281 129.734375 197.507812 C 129.097656 198.152344 128.78125 199.054688 128.78125 200.214844 L 126.503906 200.214844 C 126.503906 198.558594 127.035156 197.21875 128.097656 196.195312 C 129.167969 195.175781 130.597656 194.664062 132.382812 194.664062 C 134.050781 194.664062 135.371094 195.101562 136.34375 195.972656 C 137.316406 196.855469 137.800781 198.027344 137.800781 199.488281 C 137.800781 201.253906 136.675781 203.359375 134.421875 205.8125 L 129.601562 211.035156 Z M 152.847656 211.035156 L 152.847656 212.898438 L 141.058594 212.898438 L 141.058594 211.257812 L 147.28125 204.339844 C 148.203125 203.285156 148.839844 202.433594 149.1875 201.777344 C 149.542969 201.125 149.722656 200.449219 149.722656 199.753906 C 149.722656 198.8125 149.433594 198.042969 148.859375 197.449219 C 148.292969 196.84375 147.539062 196.539062 146.597656 196.539062 C 145.457031 196.539062 144.574219 196.863281 143.949219 197.507812 C 143.3125 198.152344 142.996094 199.054688 142.996094 200.214844 L 140.703125 200.214844 C 140.703125 198.558594 141.238281 197.21875 142.3125 196.195312 C 143.371094 195.175781 144.800781 194.664062 146.597656 194.664062 C 148.265625 194.664062 149.582031 195.101562 150.554688 195.972656 C 151.527344 196.855469 152.015625 198.027344 152.015625 199.488281 C 152.015625 201.253906 150.890625 203.359375 148.636719 205.8125 L 143.8125 211.035156 Z M 169.132812 203.9375 L 169.132812 210.53125 C 168.527344 211.402344 167.675781 212.058594 166.585938 212.496094 C 165.496094 212.929688 164.222656 213.148438 162.777344 213.148438 C 161.308594 213.148438 160.007812 212.800781 158.875 212.109375 C 157.734375 211.421875 156.851562 210.445312 156.226562 209.175781 C 155.613281 207.90625 155.292969 206.4375 155.273438 204.769531 L 155.273438 203.191406 C 155.273438 200.484375 155.910156 198.386719 157.179688 196.898438 C 158.441406 195.410156 160.214844 194.664062 162.507812 194.664062 C 164.382812 194.664062 165.890625 195.144531 167.03125 196.109375 C 168.183594 197.058594 168.882812 198.417969 169.132812 200.1875 L 166.765625 200.1875 C 166.316406 197.804688 164.902344 196.613281 162.523438 196.613281 C 160.925781 196.613281 159.71875 197.167969 158.90625 198.28125 C 158.082031 199.402344 157.664062 201.019531 157.65625 203.132812 L 157.65625 204.605469 C 157.65625 206.621094 158.117188 208.222656 159.039062 209.414062 C 159.960938 210.605469 161.214844 211.199219 162.789062 211.199219 C 163.671875 211.199219 164.453125 211.101562 165.128906 210.902344 C 165.792969 210.703125 166.34375 210.371094 166.78125 209.90625 L 166.78125 205.871094 L 162.613281 205.871094 L 162.613281 203.9375 Z M 180.011719 194.828125 L 180.011719 212.898438 L 177.71875 212.898438 L 177.71875 197.671875 L 173.105469 199.351562 L 173.105469 197.285156 L 179.652344 194.828125 Z M 180.011719 194.828125 "/>
</g>
</svg>
