<?xml version="1.0" encoding="UTF-8"?>
<svg xmlns="http://www.w3.org/2000/svg" xmlns:xlink="http://www.w3.org/1999/xlink" viewBox="0 0 64 64" width="64px" height="64px">
<g id="surface287733476">
<path style=" stroke:none;fill-rule:nonzero;fill:rgb(0%,0%,0%);fill-opacity:1;" d="M 33 5.03125 C 32.085938 5.03125 31.167969 5.371094 30.503906 6.042969 L 9.398438 27.367188 C 8.496094 28.28125 8 29.492188 8 30.78125 L 8 53.445312 C 8 55.40625 9.582031 57 11.527344 57 L 54.472656 57 C 56.417969 57 58 55.40625 58 53.445312 L 58 30.78125 C 58 29.492188 57.503906 28.28125 56.601562 27.367188 L 35.496094 6.042969 C 34.832031 5.371094 33.914062 5.03125 33 5.03125 Z M 33 7 C 33.40625 7 33.785156 7.160156 34.074219 7.449219 L 38.621094 12.042969 L 30.375 20.289062 C 29.984375 20.683594 29.984375 21.3125 30.375 21.703125 C 30.570312 21.898438 30.824219 21.996094 31.082031 21.996094 C 31.339844 21.996094 31.59375 21.898438 31.789062 21.703125 L 33.167969 20.324219 L 46 33.152344 L 46 45 L 20 45 L 20 33.492188 L 28.703125 24.789062 C 29.09375 24.398438 29.09375 23.769531 28.703125 23.375 C 28.3125 22.984375 27.679688 22.984375 27.289062 23.375 L 10 40.667969 L 10 30.78125 C 10 30.035156 10.296875 29.300781 10.820312 28.773438 L 31.925781 7.449219 C 32.214844 7.160156 32.59375 7 33 7 Z M 40.027344 13.46875 L 55.179688 28.777344 C 55.703125 29.304688 56 30.035156 56 30.78125 L 56 53.449219 C 56 54.304688 55.316406 55 54.472656 55 L 48 55 L 48 32.742188 C 48 32.472656 47.894531 32.21875 47.707031 32.035156 L 34.582031 18.914062 Z M 18 35.492188 L 18 55 L 11.527344 55 C 10.683594 55 10 54.304688 10 53.449219 L 10 43.496094 Z M 23 39 C 22.445312 39 22 39.449219 22 40 L 22 42 C 22 42.550781 22.445312 43 23 43 C 23.554688 43 24 42.550781 24 42 L 24 40 C 24 39.449219 23.554688 39 23 39 Z M 28 39 C 27.445312 39 27 39.449219 27 40 L 27 42 C 27 42.550781 27.445312 43 28 43 C 28.554688 43 29 42.550781 29 42 L 29 40 C 29 39.449219 28.554688 39 28 39 Z M 33 39 C 32.445312 39 32 39.449219 32 40 L 32 42 C 32 42.550781 32.445312 43 33 43 C 33.554688 43 34 42.550781 34 42 L 34 40 C 34 39.449219 33.554688 39 33 39 Z M 38 39 C 37.445312 39 37 39.449219 37 40 L 37 42 C 37 42.550781 37.445312 43 38 43 C 38.554688 43 39 42.550781 39 42 L 39 40 C 39 39.449219 38.554688 39 38 39 Z M 43 39 C 42.445312 39 42 39.449219 42 40 L 42 42 C 42 42.550781 42.445312 43 43 43 C 43.554688 43 44 42.550781 44 42 L 44 40 C 44 39.449219 43.554688 39 43 39 Z M 20 47 L 46 47 L 46 55 L 20 55 Z M 20 47 "/>
<path style=" stroke:none;fill-rule:nonzero;fill:rgb(34.117648%,5.882353%,92.941177%);fill-opacity:1;" d="M 23.351562 51.800781 L 23.945312 51.800781 C 23.890625 52.273438 23.714844 52.640625 23.421875 52.898438 C 23.125 53.15625 22.734375 53.289062 22.242188 53.289062 C 21.710938 53.289062 21.285156 53.097656 20.964844 52.714844 C 20.644531 52.332031 20.484375 51.824219 20.484375 51.183594 L 20.484375 50.753906 C 20.484375 50.335938 20.558594 49.96875 20.707031 49.652344 C 20.859375 49.335938 21.070312 49.089844 21.34375 48.917969 C 21.617188 48.75 21.933594 48.667969 22.292969 48.667969 C 22.773438 48.667969 23.15625 48.796875 23.445312 49.0625 C 23.730469 49.332031 23.898438 49.703125 23.945312 50.171875 L 23.351562 50.171875 C 23.296875 49.8125 23.1875 49.554688 23.015625 49.394531 C 22.84375 49.234375 22.605469 49.152344 22.292969 49.152344 C 21.914062 49.152344 21.617188 49.292969 21.40625 49.574219 C 21.1875 49.855469 21.082031 50.253906 21.082031 50.769531 L 21.082031 51.203125 C 21.082031 51.691406 21.183594 52.082031 21.386719 52.367188 C 21.589844 52.65625 21.875 52.800781 22.242188 52.800781 C 22.570312 52.800781 22.824219 52.726562 23 52.578125 C 23.175781 52.429688 23.292969 52.167969 23.351562 51.800781 Z M 27.429688 50.5625 L 27.429688 51.308594 C 27.429688 51.976562 27.316406 52.472656 27.085938 52.796875 C 26.859375 53.125 26.5 53.289062 26.015625 53.289062 C 25.535156 53.289062 25.175781 53.128906 24.945312 52.808594 C 24.714844 52.488281 24.597656 52.015625 24.589844 51.382812 L 24.589844 50.621094 C 24.589844 49.960938 24.703125 49.46875 24.933594 49.144531 C 25.160156 48.824219 25.519531 48.667969 26.007812 48.667969 C 26.492188 48.667969 26.847656 48.820312 27.074219 49.132812 C 27.304688 49.441406 27.421875 49.917969 27.429688 50.5625 Z M 26.855469 51.460938 L 26.855469 50.527344 C 26.855469 50.039062 26.789062 49.6875 26.652344 49.464844 C 26.515625 49.246094 26.300781 49.136719 26.007812 49.136719 C 25.714844 49.136719 25.5 49.246094 25.367188 49.464844 C 25.234375 49.6875 25.164062 50.027344 25.164062 50.480469 L 25.164062 51.398438 C 25.164062 51.882812 25.230469 52.238281 25.371094 52.472656 C 25.511719 52.703125 25.726562 52.820312 26.015625 52.820312 C 26.296875 52.820312 26.503906 52.710938 26.644531 52.492188 C 26.78125 52.273438 26.851562 51.929688 26.855469 51.460938 Z M 30.300781 48.726562 L 30.402344 48.726562 L 30.402344 49.210938 L 30.296875 49.210938 C 29.855469 49.214844 29.5 49.347656 29.234375 49.605469 C 28.96875 49.859375 28.820312 50.21875 28.78125 50.683594 C 29.015625 50.410156 29.335938 50.273438 29.746094 50.273438 C 30.140625 50.273438 30.453125 50.414062 30.683594 50.691406 C 30.917969 50.964844 31.035156 51.320312 31.035156 51.757812 C 31.035156 52.21875 30.910156 52.589844 30.660156 52.871094 C 30.40625 53.148438 30.066406 53.289062 29.644531 53.289062 C 29.210938 53.289062 28.863281 53.121094 28.597656 52.789062 C 28.328125 52.457031 28.195312 52.035156 28.195312 51.511719 L 28.195312 51.292969 C 28.195312 50.46875 28.371094 49.835938 28.722656 49.394531 C 29.074219 48.957031 29.601562 48.734375 30.300781 48.726562 Z M 29.648438 50.75 C 29.457031 50.75 29.277344 50.808594 29.109375 50.925781 C 28.945312 51.042969 28.832031 51.191406 28.769531 51.367188 L 28.769531 51.578125 C 28.769531 51.949219 28.851562 52.246094 29.019531 52.472656 C 29.1875 52.699219 29.394531 52.816406 29.644531 52.816406 C 29.902344 52.816406 30.101562 52.71875 30.25 52.527344 C 30.394531 52.339844 30.46875 52.089844 30.46875 51.785156 C 30.46875 51.476562 30.394531 51.226562 30.246094 51.035156 C 30.097656 50.84375 29.898438 50.75 29.648438 50.75 Z M 34.660156 52.757812 L 34.660156 53.222656 L 31.710938 53.222656 L 31.710938 52.816406 L 33.265625 51.085938 C 33.496094 50.820312 33.65625 50.609375 33.746094 50.445312 C 33.832031 50.28125 33.878906 50.113281 33.878906 49.9375 C 33.878906 49.703125 33.804688 49.511719 33.664062 49.363281 C 33.519531 49.210938 33.332031 49.136719 33.097656 49.136719 C 32.808594 49.136719 32.589844 49.214844 32.433594 49.375 C 32.273438 49.539062 32.195312 49.765625 32.195312 50.054688 L 31.625 50.054688 C 31.625 49.640625 31.757812 49.304688 32.023438 49.050781 C 32.292969 48.792969 32.648438 48.667969 33.097656 48.667969 C 33.511719 48.667969 33.84375 48.773438 34.085938 48.992188 C 34.328125 49.214844 34.449219 49.507812 34.449219 49.871094 C 34.449219 50.3125 34.167969 50.839844 33.605469 51.453125 L 32.398438 52.757812 Z M 38.210938 52.757812 L 38.210938 53.222656 L 35.265625 53.222656 L 35.265625 52.816406 L 36.820312 51.085938 C 37.050781 50.820312 37.210938 50.609375 37.296875 50.445312 C 37.386719 50.28125 37.429688 50.113281 37.429688 49.9375 C 37.429688 49.703125 37.359375 49.511719 37.214844 49.363281 C 37.074219 49.210938 36.886719 49.136719 36.648438 49.136719 C 36.363281 49.136719 36.144531 49.214844 35.988281 49.375 C 35.828125 49.539062 35.75 49.765625 35.75 50.054688 L 35.175781 50.054688 C 35.175781 49.640625 35.308594 49.304688 35.578125 49.050781 C 35.84375 48.792969 36.199219 48.667969 36.648438 48.667969 C 37.066406 48.667969 37.394531 48.773438 37.640625 48.992188 C 37.882812 49.214844 38.003906 49.507812 38.003906 49.871094 C 38.003906 50.3125 37.722656 50.839844 37.160156 51.453125 L 35.953125 52.757812 Z M 42.28125 50.984375 L 42.28125 52.632812 C 42.132812 52.851562 41.917969 53.015625 41.648438 53.125 C 41.375 53.234375 41.054688 53.289062 40.695312 53.289062 C 40.328125 53.289062 40 53.199219 39.71875 53.027344 C 39.433594 52.855469 39.214844 52.613281 39.058594 52.292969 C 38.902344 51.976562 38.824219 51.609375 38.820312 51.191406 L 38.820312 50.796875 C 38.820312 50.121094 38.976562 49.597656 39.292969 49.222656 C 39.609375 48.851562 40.054688 48.667969 40.628906 48.667969 C 41.097656 48.667969 41.472656 48.785156 41.757812 49.027344 C 42.046875 49.265625 42.222656 49.605469 42.28125 50.046875 L 41.691406 50.046875 C 41.578125 49.449219 41.226562 49.152344 40.628906 49.152344 C 40.230469 49.152344 39.929688 49.292969 39.726562 49.570312 C 39.519531 49.851562 39.417969 50.253906 39.414062 50.785156 L 39.414062 51.152344 C 39.414062 51.65625 39.53125 52.054688 39.761719 52.351562 C 39.992188 52.652344 40.304688 52.800781 40.699219 52.800781 C 40.917969 52.800781 41.113281 52.773438 41.28125 52.726562 C 41.449219 52.675781 41.585938 52.59375 41.695312 52.476562 L 41.695312 51.46875 L 40.652344 51.46875 L 40.652344 50.984375 Z M 45.003906 48.707031 L 45.003906 53.222656 L 44.429688 53.222656 L 44.429688 49.417969 L 43.277344 49.839844 L 43.277344 49.320312 L 44.914062 48.707031 Z M 45.003906 48.707031 "/>
</g>
</svg>
